<?xml version="1.0" encoding="UTF-8"?>
<svg width="752pt" height="752pt" version="1.1" viewBox="0 0 752 752" xmlns="http://www.w3.org/2000/svg">
 <path d="m376 179.94c-124.08 0-224.95 100.4-224.95 224.95 0 66.301 28.887 126.45 74.824 167.65v-16.574c0-36.465 21.312-69.145 54.461-84.297l23.68-10.891c19.418 17.992 44.52 28.883 71.984 28.883 27.469 0 52.566-10.891 71.984-29.363l23.68 10.891c33.152 15.156 54.461 47.832 54.461 84.297v16.574c45.938-41.203 74.824-100.87 74.824-167.65 0.003906-124.07-100.87-224.47-224.95-224.47zm0 273.26c-41.676 0-75.301-39.309-75.301-87.613 0.003906-48.305 33.629-88.086 75.301-88.086 41.676 0 75.301 39.309 75.301 87.613s-33.625 88.086-75.301 88.086z"/>
</svg>
